<svg width="115" height="128" viewBox="0 0 115 128" fill="none" xmlns="http://www.w3.org/2000/svg">
<path d="M71.4261 58.6487L80.8261 42.6981L106.163 82.1617L106.175 89.7355L106.093 37.62C106.033 36.346 105.356 35.1807 104.277 34.4934L58.6606 8.25393C57.5941 7.72928 56.2403 7.73534 55.1751 8.27054C55.0312 8.34226 54.8957 8.42082 54.767 8.50651L54.6078 8.60643L10.3299 34.265L10.1583 34.3431C9.93733 34.4446 9.71376 34.5738 9.50442 34.7238C8.66471 35.3257 8.10736 36.216 7.92703 37.2147C7.89987 37.3661 7.87983 37.52 7.87061 37.6758L7.94021 80.1448L31.5405 43.5652C34.5121 38.7149 40.9857 37.1525 46.9955 37.2374L54.0488 37.4235L12.4889 104.074L17.388 106.894L59.4454 37.4913L78.0352 37.4238L36.0861 108.578L53.5674 118.633L55.656 119.834C56.5395 120.193 57.5812 120.211 58.472 119.89L104.73 93.0825L95.8859 98.2073L71.4261 58.6487ZM75.0122 110.304L57.356 82.5925L68.1342 64.3031L91.3224 100.852L75.0122 110.304Z" fill="#2D374B"/>
<path d="M57.3563 82.5924L75.0122 110.304L91.3227 100.852L68.1342 64.303L57.3563 82.5924Z" fill="#28A0F0"/>
<path d="M106.176 89.7355L106.163 82.1617L80.8262 42.698L71.4261 58.6486L95.8857 98.207L104.729 93.0822C105.597 92.3775 106.122 91.3437 106.177 90.2282L106.176 89.7355Z" fill="#28A0F0"/>
<path d="M0.000244141 96.8777L12.4889 104.074L54.0486 37.424L46.9953 37.2379C40.9854 37.153 34.5116 38.7154 31.5403 43.5657L7.93996 80.1453L0.000244141 92.3445V96.8777V96.8777Z" fill="white"/>
<path d="M78.0352 37.4238L59.4455 37.4913L17.3881 106.894L32.0885 115.358L36.0861 108.578L78.0352 37.4238Z" fill="white"/>
<path d="M114.009 37.3282C113.854 33.4405 111.749 29.8815 108.452 27.8095L62.237 1.23261C58.9754 -0.409641 54.901 -0.41175 51.6336 1.23156C51.2474 1.42639 6.69109 27.2672 6.69109 27.2672C6.07442 27.563 5.48042 27.9152 4.92176 28.3152C1.97841 30.4246 0.184289 33.7028 0 37.3042V92.3444L7.93972 80.1452L7.87038 37.6762C7.87961 37.5209 7.89912 37.368 7.9268 37.2172C8.10634 36.218 8.66422 35.3266 9.5042 34.7242C9.7138 34.5742 55.0312 8.34264 55.1752 8.27066C56.2403 7.73572 57.5941 7.7294 58.6606 8.25405L104.277 34.493C105.356 35.1803 106.033 36.3456 106.093 37.6195V90.2281C106.038 91.3436 105.597 92.3774 104.729 93.0821L95.8857 98.2069L91.3225 100.852L75.0122 110.304L58.4718 119.889C57.581 120.211 56.5393 120.193 55.6558 119.834L36.0858 108.578L32.0882 115.358L49.675 125.484C50.2566 125.815 50.7747 126.108 51.1999 126.346C51.8583 126.716 52.307 126.963 52.4654 127.04C53.7154 127.647 55.514 128 57.1346 128C58.6205 128 60.0695 127.727 61.4405 127.19L109.484 99.3672C112.241 97.2306 113.863 94.0086 114.009 90.5181V37.3282Z" fill="#96BEDC"/>
</svg>
